<svg width="116" height="32" viewBox="0 0 116 32" fill="none" xmlns="http://www.w3.org/2000/svg">
<path d="M0 31.7187V6.4154H5.79866V9.56633H5.97837C6.21798 9.00723 6.55743 8.46809 6.99673 7.94893C7.444 7.42976 8.01109 7.00645 8.69798 6.67897C9.39286 6.34351 10.2235 6.17578 11.19 6.17578C12.4679 6.17578 13.662 6.51124 14.7722 7.18216C15.8904 7.85308 16.7929 8.88742 17.4798 10.2852C18.1667 11.6829 18.5102 13.4641 18.5102 15.6286C18.5102 17.7132 18.1787 19.4584 17.5158 20.8642C16.8608 22.2699 15.9743 23.3242 14.8561 24.0271C13.7458 24.7299 12.5118 25.0814 11.154 25.0814C10.2275 25.0814 9.42481 24.9296 8.74591 24.6261C8.067 24.3226 7.49592 23.9232 7.03267 23.428C6.5774 22.9328 6.22597 22.4017 5.97837 21.8346H5.85856V31.7187H0ZM5.73875 15.6166C5.73875 16.607 5.87054 17.4696 6.13412 18.2044C6.40568 18.9393 6.79305 19.5103 7.29624 19.9177C7.80742 20.317 8.41843 20.5167 9.12929 20.5167C9.84813 20.5167 10.4591 20.317 10.9623 19.9177C11.4655 19.5103 11.8449 18.9393 12.1005 18.2044C12.3641 17.4696 12.4959 16.607 12.4959 15.6166C12.4959 14.6262 12.3641 13.7676 12.1005 13.0407C11.8449 12.3139 11.4655 11.7508 10.9623 11.3515C10.4671 10.9521 9.85612 10.7524 9.12929 10.7524C8.41045 10.7524 7.79943 10.9481 7.29624 11.3395C6.79305 11.7308 6.40568 12.2899 6.13412 13.0168C5.87054 13.7436 5.73875 14.6102 5.73875 15.6166Z" fill="black"/>
<path d="M33.9422 6.41551L36.9733 12.4778L40.1123 6.41551H46.0187L40.879 15.6167L46.2104 24.8179H40.3519L36.9733 18.7077L33.6786 24.8179H27.7362L33.0796 15.6167L27.9998 6.41551H33.9422Z" fill="black"/>
<path d="M53.6774 6.41551L56.7085 12.4778L59.8475 6.41551H65.7539L60.6142 15.6167L65.9456 24.8179H60.0871L56.7085 18.7077L53.4138 24.8179H47.4714L52.8148 15.6167L47.735 6.41551H53.6774Z" fill="black"/>
<path d="M76.3718 25.1653C74.4469 25.1653 72.7856 24.786 71.3879 24.0272C69.9981 23.2604 68.9278 22.1702 68.177 20.7564C67.4342 19.3347 67.0628 17.6454 67.0628 15.6886C67.0628 13.7876 67.4382 12.1263 68.189 10.7046C68.9398 9.27491 69.9981 8.16469 71.3639 7.37396C72.7297 6.57525 74.3391 6.17589 76.1921 6.17589C77.502 6.17589 78.7001 6.37956 79.7863 6.78691C80.8726 7.19425 81.8111 7.79728 82.6018 8.596C83.3925 9.39471 84.0075 10.3811 84.4468 11.5552C84.8861 12.7214 85.1058 14.0592 85.1058 15.5688V17.0304H69.1115V13.6279H79.6545C79.6466 13.0049 79.4988 12.4498 79.2113 11.9626C78.9237 11.4754 78.5284 11.096 78.0252 10.8244C77.53 10.5449 76.9589 10.4051 76.3119 10.4051C75.657 10.4051 75.0699 10.5529 74.5508 10.8484C74.0316 11.1359 73.6203 11.5313 73.3168 12.0345C73.0132 12.5297 72.8535 13.0928 72.8375 13.7238V17.1862C72.8375 17.937 72.9853 18.5959 73.2808 19.163C73.5763 19.7221 73.9957 20.1574 74.5388 20.4689C75.0819 20.7804 75.7289 20.9362 76.4797 20.9362C76.9988 20.9362 77.4701 20.8643 77.8934 20.7205C78.3167 20.5767 78.6801 20.3651 78.9836 20.0855C79.2871 19.806 79.5148 19.4625 79.6665 19.0552L85.0459 19.2109C84.8222 20.417 84.331 21.4673 83.5722 22.3619C82.8214 23.2484 81.835 23.9393 80.613 24.4345C79.391 24.9217 77.9772 25.1653 76.3718 25.1653Z" fill="black"/>
<path d="M93.9565 0.281372V24.8179H88.0979V0.281372H93.9565Z" fill="black"/>
<path d="M109.558 16.8747V6.41551H115.405V24.8179H109.822V21.3914H109.63C109.223 22.5176 108.528 23.4122 107.546 24.0751C106.571 24.73 105.393 25.0575 104.011 25.0575C102.757 25.0575 101.655 24.77 100.705 24.1949C99.7542 23.6198 99.0154 22.8171 98.4882 21.7868C97.9611 20.7485 97.6935 19.5344 97.6855 18.1446V6.41551H103.544V16.9945C103.552 17.9929 103.816 18.7796 104.335 19.3547C104.854 19.9298 105.561 20.2173 106.455 20.2173C107.038 20.2173 107.562 20.0895 108.025 19.8339C108.496 19.5703 108.867 19.191 109.139 18.6958C109.419 18.1926 109.558 17.5855 109.558 16.8747Z" fill="#DC4A26"/>
<path d="M15.2931 6.49828V0.63916H21.1516V6.49828H15.2931Z" fill="black"/>
<path d="M15.2931 6.49828V0.63916H21.1516V6.49828H15.2931Z" fill="black"/>
<path d="M21.0177 24.8179V6.41553H26.8763V24.8179H21.0177Z" fill="black"/>
<path d="M21.0177 24.8179V6.41553H26.8763V24.8179H21.0177Z" fill="black"/>
</svg>
